<svg width="469" height="505" viewBox="0 0 469 505" fill="none" xmlns="http://www.w3.org/2000/svg">
<g filter="url(#filter0_i_1_29)">
<ellipse cx="235.058" cy="251.452" rx="93" ry="90.5" transform="rotate(1.6878 235.058 251.452)" fill="black"/>
</g>
<path d="M324.519 254.088C323.107 302.027 281.994 339.873 232.495 338.414C182.997 336.956 144.184 296.754 145.597 248.816C147.009 200.877 188.122 163.031 237.62 164.49C287.119 165.948 325.932 206.149 324.519 254.088Z" stroke="white" stroke-width="7"/>
<g filter="url(#filter1_i_1_29)">
<path d="M292.454 259.578C297.831 261.354 301.75 266.007 302.586 271.608L304.518 284.556C305.286 289.706 303.328 294.887 299.345 298.242L274.949 318.79C270.988 322.125 265.587 323.182 260.662 321.586L248.165 317.536C242.72 315.772 238.754 311.063 237.941 305.398L236.075 292.394C235.339 287.268 237.299 282.126 241.26 278.79L265.656 258.243C269.639 254.888 275.078 253.839 280.023 255.473L292.454 259.578Z" fill="white"/>
<path d="M292.454 259.578C297.831 261.354 301.75 266.007 302.586 271.608L304.518 284.556C305.286 289.706 303.328 294.887 299.345 298.242L274.949 318.79C270.988 322.125 265.587 323.182 260.662 321.586L248.165 317.536C242.72 315.772 238.754 311.063 237.941 305.398L236.075 292.394C235.339 287.268 237.299 282.126 241.26 278.79L265.656 258.243C269.639 254.888 275.078 253.839 280.023 255.473L292.454 259.578Z" fill="#325DCC"/>
</g>
<g filter="url(#filter2_i_1_29)">
<path d="M302.143 235.079C300.833 240.589 296.532 244.89 291.022 246.201L278.287 249.231C273.22 250.437 267.891 248.928 264.208 245.245L241.654 222.692C237.992 219.031 236.478 213.74 237.648 208.696L240.616 195.899C241.909 190.323 246.263 185.97 251.838 184.676L264.635 181.707C269.679 180.537 274.97 182.051 278.632 185.712L301.186 208.265C304.869 211.948 306.378 217.277 305.173 222.343L302.143 235.079Z" fill="white"/>
<path d="M302.143 235.079C300.833 240.589 296.532 244.89 291.022 246.201L278.287 249.231C273.22 250.437 267.891 248.928 264.208 245.245L241.654 222.692C237.992 219.031 236.478 213.74 237.648 208.696L240.616 195.899C241.909 190.323 246.263 185.97 251.838 184.676L264.635 181.707C269.679 180.537 274.97 182.051 278.632 185.712L301.186 208.265C304.869 211.948 306.378 217.277 305.173 222.343L302.143 235.079Z" fill="#E2E62E"/>
</g>
<g filter="url(#filter3_i_1_29)">
<path d="M214.881 183.451C220.431 184.572 224.877 188.724 226.375 194.186L229.838 206.811C231.215 211.833 229.889 217.211 226.334 221.017L204.563 244.328C201.029 248.112 195.793 249.806 190.712 248.808L177.821 246.278C172.205 245.176 167.705 240.974 166.222 235.446L162.819 222.757C161.477 217.756 162.81 212.417 166.344 208.632L188.115 185.322C191.67 181.516 196.944 179.826 202.049 180.857L214.881 183.451Z" fill="white"/>
<path d="M214.881 183.451C220.431 184.572 224.877 188.724 226.375 194.186L229.838 206.811C231.215 211.833 229.889 217.211 226.334 221.017L204.563 244.328C201.029 248.112 195.793 249.806 190.712 248.808L177.821 246.278C172.205 245.176 167.705 240.974 166.222 235.446L162.819 222.757C161.477 217.756 162.81 212.417 166.344 208.632L188.115 185.322C191.67 181.516 196.944 179.826 202.049 180.857L214.881 183.451Z" fill="#2FD954"/>
</g>
<g filter="url(#filter4_i_1_29)">
<path d="M228.028 306.762C226.9 312.311 222.743 316.752 217.28 318.244L204.651 321.693C199.627 323.065 194.251 321.733 190.449 318.175L167.162 296.378C163.382 292.84 161.693 287.602 162.696 282.522L165.24 269.634C166.349 264.019 170.556 259.524 176.086 258.047L188.778 254.657C193.78 253.321 199.118 254.659 202.899 258.197L226.186 279.994C229.988 283.553 231.672 288.829 230.635 293.932L228.028 306.762Z" fill="white"/>
<path d="M228.028 306.762C226.9 312.311 222.743 316.752 217.28 318.244L204.651 321.693C199.627 323.065 194.251 321.733 190.449 318.175L167.162 296.378C163.382 292.84 161.693 287.602 162.696 282.522L165.24 269.634C166.349 264.019 170.556 259.524 176.086 258.047L188.778 254.657C193.78 253.321 199.118 254.659 202.899 258.197L226.186 279.994C229.988 283.553 231.672 288.829 230.635 293.932L228.028 306.762Z" fill="#F31A1A"/>
</g>
<mask id="path-7-outside-1_1_29" maskUnits="userSpaceOnUse" x="216.933" y="242.425" width="38.3664" height="14.1136" fill="black">
<rect fill="white" x="216.933" y="242.425" width="38.3664" height="14.1136"/>
<path d="M223.214 247.384C223.19 247.039 223.052 246.768 222.799 246.57C222.546 246.372 222.198 246.267 221.756 246.254C221.455 246.245 221.199 246.28 220.989 246.359C220.78 246.435 220.617 246.546 220.502 246.69C220.39 246.835 220.331 247.001 220.325 247.188C220.315 247.344 220.344 247.481 220.411 247.6C220.482 247.718 220.58 247.822 220.705 247.911C220.83 247.997 220.976 248.074 221.141 248.141C221.307 248.206 221.485 248.262 221.674 248.311L222.452 248.521C222.83 248.618 223.176 248.741 223.49 248.893C223.803 249.044 224.074 249.227 224.301 249.441C224.527 249.655 224.7 249.905 224.82 250.19C224.942 250.475 224.999 250.799 224.992 251.162C224.973 251.696 224.823 252.155 224.542 252.539C224.263 252.92 223.868 253.211 223.356 253.412C222.848 253.61 222.238 253.699 221.528 253.678C220.824 253.657 220.214 253.531 219.698 253.3C219.184 253.069 218.788 252.737 218.508 252.306C218.231 251.871 218.094 251.34 218.098 250.712L219.883 250.765C219.894 251.058 219.971 251.304 220.113 251.505C220.258 251.702 220.454 251.854 220.701 251.961C220.95 252.065 221.234 252.122 221.552 252.131C221.865 252.14 222.137 252.103 222.37 252.019C222.606 251.935 222.79 251.814 222.922 251.656C223.055 251.498 223.124 251.313 223.13 251.103C223.136 250.907 223.083 250.741 222.97 250.604C222.861 250.467 222.696 250.349 222.478 250.248C222.262 250.148 221.996 250.055 221.68 249.969L220.737 249.703C220.007 249.502 219.435 249.205 219.02 248.812C218.605 248.419 218.409 247.9 218.431 247.256C218.443 246.728 218.597 246.27 218.893 245.884C219.191 245.498 219.594 245.201 220.1 244.994C220.606 244.788 221.178 244.694 221.814 244.712C222.461 244.731 223.023 244.859 223.499 245.095C223.978 245.33 224.347 245.65 224.605 246.052C224.863 246.455 224.989 246.916 224.982 247.436L223.214 247.384ZM226.125 253.69L226.317 247.147L228.132 247.201L227.939 253.743L226.125 253.69ZM227.254 246.331C226.984 246.323 226.755 246.226 226.567 246.042C226.383 245.854 226.294 245.634 226.301 245.382C226.309 245.132 226.41 244.92 226.606 244.747C226.804 244.571 227.038 244.487 227.308 244.495C227.578 244.503 227.805 244.6 227.99 244.788C228.178 244.972 228.268 245.19 228.261 245.439C228.253 245.692 228.15 245.907 227.952 246.083C227.756 246.256 227.524 246.339 227.254 246.331ZM229.393 253.786L229.586 247.243L231.315 247.294L231.281 248.449L231.358 248.451C231.505 248.072 231.741 247.776 232.066 247.564C232.39 247.352 232.774 247.252 233.217 247.265C233.666 247.278 234.045 247.402 234.353 247.635C234.662 247.866 234.863 248.173 234.957 248.557L235.025 248.559C235.17 248.188 235.42 247.896 235.776 247.682C236.134 247.465 236.554 247.364 237.034 247.378C237.644 247.396 238.134 247.605 238.503 248.005C238.875 248.403 239.051 248.956 239.03 249.666L238.9 254.066L237.09 254.013L237.209 249.971C237.22 249.607 237.131 249.332 236.943 249.144C236.756 248.957 236.517 248.859 236.227 248.85C235.898 248.841 235.638 248.938 235.447 249.143C235.256 249.345 235.156 249.616 235.146 249.957L235.028 253.952L233.269 253.9L233.389 249.82C233.399 249.499 233.314 249.24 233.135 249.045C232.959 248.849 232.722 248.747 232.423 248.738C232.222 248.732 232.039 248.778 231.874 248.875C231.712 248.97 231.581 249.107 231.482 249.286C231.383 249.462 231.33 249.671 231.323 249.912L231.207 253.84L229.393 253.786ZM243.286 254.323C242.624 254.304 242.056 254.146 241.582 253.851C241.11 253.553 240.751 253.147 240.505 252.634C240.258 252.118 240.145 251.525 240.165 250.855C240.185 250.179 240.333 249.592 240.609 249.094C240.885 248.594 241.267 248.21 241.756 247.943C242.247 247.673 242.823 247.548 243.485 247.568C244.146 247.587 244.713 247.746 245.185 248.044C245.659 248.34 246.019 248.745 246.266 249.261C246.512 249.774 246.625 250.369 246.605 251.045C246.586 251.715 246.438 252.3 246.161 252.801C245.885 253.299 245.502 253.682 245.01 253.952C244.522 254.219 243.947 254.343 243.286 254.323ZM243.336 252.918C243.637 252.927 243.89 252.849 244.097 252.685C244.304 252.517 244.463 252.286 244.574 251.991C244.688 251.696 244.75 251.358 244.761 250.978C244.773 250.597 244.73 250.256 244.634 249.955C244.54 249.654 244.395 249.414 244.199 249.234C244.002 249.055 243.753 248.961 243.452 248.952C243.149 248.943 242.891 249.022 242.678 249.19C242.469 249.357 242.307 249.588 242.193 249.883C242.082 250.178 242.021 250.516 242.01 250.896C241.998 251.277 242.04 251.618 242.133 251.919C242.229 252.22 242.377 252.461 242.576 252.64C242.779 252.816 243.032 252.909 243.336 252.918ZM249.616 250.596L249.504 254.379L247.69 254.325L247.882 247.783L249.612 247.834L249.578 248.988L249.654 248.99C249.81 248.614 250.062 248.32 250.409 248.109C250.757 247.894 251.173 247.794 251.659 247.809C252.113 247.822 252.506 247.933 252.838 248.142C253.17 248.351 253.425 248.642 253.601 249.017C253.778 249.389 253.859 249.829 253.844 250.337L253.721 254.503L251.906 254.449L252.02 250.607C252.034 250.207 251.941 249.892 251.741 249.661C251.54 249.428 251.258 249.306 250.894 249.295C250.65 249.288 250.433 249.334 250.242 249.434C250.055 249.533 249.905 249.682 249.794 249.881C249.686 250.077 249.627 250.315 249.616 250.596Z"/>
</mask>
<g filter="url(#filter5_i_1_29)">
<path d="M223.214 247.384C223.19 247.039 223.052 246.768 222.799 246.57C222.546 246.372 222.198 246.267 221.756 246.254C221.455 246.245 221.199 246.28 220.989 246.359C220.78 246.435 220.617 246.546 220.502 246.69C220.39 246.835 220.331 247.001 220.325 247.188C220.315 247.344 220.344 247.481 220.411 247.6C220.482 247.718 220.58 247.822 220.705 247.911C220.83 247.997 220.976 248.074 221.141 248.141C221.307 248.206 221.485 248.262 221.674 248.311L222.452 248.521C222.83 248.618 223.176 248.741 223.49 248.893C223.803 249.044 224.074 249.227 224.301 249.441C224.527 249.655 224.7 249.905 224.82 250.19C224.942 250.475 224.999 250.799 224.992 251.162C224.973 251.696 224.823 252.155 224.542 252.539C224.263 252.92 223.868 253.211 223.356 253.412C222.848 253.61 222.238 253.699 221.528 253.678C220.824 253.657 220.214 253.531 219.698 253.3C219.184 253.069 218.788 252.737 218.508 252.306C218.231 251.871 218.094 251.34 218.098 250.712L219.883 250.765C219.894 251.058 219.971 251.304 220.113 251.505C220.258 251.702 220.454 251.854 220.701 251.961C220.95 252.065 221.234 252.122 221.552 252.131C221.865 252.14 222.137 252.103 222.37 252.019C222.606 251.935 222.79 251.814 222.922 251.656C223.055 251.498 223.124 251.313 223.13 251.103C223.136 250.907 223.083 250.741 222.97 250.604C222.861 250.467 222.696 250.349 222.478 250.248C222.262 250.148 221.996 250.055 221.68 249.969L220.737 249.703C220.007 249.502 219.435 249.205 219.02 248.812C218.605 248.419 218.409 247.9 218.431 247.256C218.443 246.728 218.597 246.27 218.893 245.884C219.191 245.498 219.594 245.201 220.1 244.994C220.606 244.788 221.178 244.694 221.814 244.712C222.461 244.731 223.023 244.859 223.499 245.095C223.978 245.33 224.347 245.65 224.605 246.052C224.863 246.455 224.989 246.916 224.982 247.436L223.214 247.384ZM226.125 253.69L226.317 247.147L228.132 247.201L227.939 253.743L226.125 253.69ZM227.254 246.331C226.984 246.323 226.755 246.226 226.567 246.042C226.383 245.854 226.294 245.634 226.301 245.382C226.309 245.132 226.41 244.92 226.606 244.747C226.804 244.571 227.038 244.487 227.308 244.495C227.578 244.503 227.805 244.6 227.99 244.788C228.178 244.972 228.268 245.19 228.261 245.439C228.253 245.692 228.15 245.907 227.952 246.083C227.756 246.256 227.524 246.339 227.254 246.331ZM229.393 253.786L229.586 247.243L231.315 247.294L231.281 248.449L231.358 248.451C231.505 248.072 231.741 247.776 232.066 247.564C232.39 247.352 232.774 247.252 233.217 247.265C233.666 247.278 234.045 247.402 234.353 247.635C234.662 247.866 234.863 248.173 234.957 248.557L235.025 248.559C235.17 248.188 235.42 247.896 235.776 247.682C236.134 247.465 236.554 247.364 237.034 247.378C237.644 247.396 238.134 247.605 238.503 248.005C238.875 248.403 239.051 248.956 239.03 249.666L238.9 254.066L237.09 254.013L237.209 249.971C237.22 249.607 237.131 249.332 236.943 249.144C236.756 248.957 236.517 248.859 236.227 248.85C235.898 248.841 235.638 248.938 235.447 249.143C235.256 249.345 235.156 249.616 235.146 249.957L235.028 253.952L233.269 253.9L233.389 249.82C233.399 249.499 233.314 249.24 233.135 249.045C232.959 248.849 232.722 248.747 232.423 248.738C232.222 248.732 232.039 248.778 231.874 248.875C231.712 248.97 231.581 249.107 231.482 249.286C231.383 249.462 231.33 249.671 231.323 249.912L231.207 253.84L229.393 253.786ZM243.286 254.323C242.624 254.304 242.056 254.146 241.582 253.851C241.11 253.553 240.751 253.147 240.505 252.634C240.258 252.118 240.145 251.525 240.165 250.855C240.185 250.179 240.333 249.592 240.609 249.094C240.885 248.594 241.267 248.21 241.756 247.943C242.247 247.673 242.823 247.548 243.485 247.568C244.146 247.587 244.713 247.746 245.185 248.044C245.659 248.34 246.019 248.745 246.266 249.261C246.512 249.774 246.625 250.369 246.605 251.045C246.586 251.715 246.438 252.3 246.161 252.801C245.885 253.299 245.502 253.682 245.01 253.952C244.522 254.219 243.947 254.343 243.286 254.323ZM243.336 252.918C243.637 252.927 243.89 252.849 244.097 252.685C244.304 252.517 244.463 252.286 244.574 251.991C244.688 251.696 244.75 251.358 244.761 250.978C244.773 250.597 244.73 250.256 244.634 249.955C244.54 249.654 244.395 249.414 244.199 249.234C244.002 249.055 243.753 248.961 243.452 248.952C243.149 248.943 242.891 249.022 242.678 249.19C242.469 249.357 242.307 249.588 242.193 249.883C242.082 250.178 242.021 250.516 242.01 250.896C241.998 251.277 242.04 251.618 242.133 251.919C242.229 252.22 242.377 252.461 242.576 252.64C242.779 252.816 243.032 252.909 243.336 252.918ZM249.616 250.596L249.504 254.379L247.69 254.325L247.882 247.783L249.612 247.834L249.578 248.988L249.654 248.99C249.81 248.614 250.062 248.32 250.409 248.109C250.757 247.894 251.173 247.794 251.659 247.809C252.113 247.822 252.506 247.933 252.838 248.142C253.17 248.351 253.425 248.642 253.601 249.017C253.778 249.389 253.859 249.829 253.844 250.337L253.721 254.503L251.906 254.449L252.02 250.607C252.034 250.207 251.941 249.892 251.741 249.661C251.54 249.428 251.258 249.306 250.894 249.295C250.65 249.288 250.433 249.334 250.242 249.434C250.055 249.533 249.905 249.682 249.794 249.881C249.686 250.077 249.627 250.315 249.616 250.596Z" fill="black"/>
</g>
<path d="M223.214 247.384L222.217 247.453L222.28 248.357L223.185 248.384L223.214 247.384ZM220.989 246.359L221.331 247.299L221.342 247.295L220.989 246.359ZM220.502 246.69L219.72 246.067L219.712 246.077L220.502 246.69ZM220.325 247.188L221.323 247.254L221.324 247.236L221.325 247.217L220.325 247.188ZM220.411 247.6L219.543 248.095L219.547 248.103L219.551 248.11L220.411 247.6ZM220.705 247.911L220.126 248.726L220.132 248.731L220.139 248.735L220.705 247.911ZM221.141 248.141L220.765 249.068L220.772 249.071L220.778 249.073L221.141 248.141ZM221.674 248.311L221.935 247.345L221.928 247.343L221.921 247.342L221.674 248.311ZM222.452 248.521L222.191 249.486L222.198 249.488L222.205 249.49L222.452 248.521ZM223.49 248.893L223.055 249.793L223.055 249.793L223.49 248.893ZM224.301 249.441L224.987 248.714L224.987 248.714L224.301 249.441ZM224.82 250.19L223.898 250.576L223.901 250.584L224.82 250.19ZM224.992 251.162L225.991 251.197L225.991 251.184L224.992 251.162ZM224.542 252.539L223.735 251.948L223.734 251.949L224.542 252.539ZM223.356 253.412L223.719 254.344L223.722 254.343L223.356 253.412ZM219.698 253.3L219.287 254.212L219.289 254.213L219.698 253.3ZM218.508 252.306L217.665 252.843L217.669 252.85L218.508 252.306ZM218.098 250.712L218.128 249.712L217.105 249.682L217.098 250.705L218.098 250.712ZM219.883 250.765L220.882 250.726L220.847 249.793L219.913 249.765L219.883 250.765ZM220.113 251.505L219.297 252.083L219.302 252.089L219.306 252.096L220.113 251.505ZM220.701 251.961L220.304 252.879L220.316 252.884L220.701 251.961ZM222.37 252.019L222.034 251.077L222.03 251.078L222.37 252.019ZM222.922 251.656L223.688 252.298L223.688 252.298L222.922 251.656ZM222.97 250.604L222.19 251.229L222.198 251.239L222.97 250.604ZM222.478 250.248L222.057 251.156L222.061 251.158L222.478 250.248ZM221.68 249.969L221.408 250.932L221.417 250.934L221.68 249.969ZM220.737 249.703L221.009 248.74L221.002 248.738L220.737 249.703ZM219.02 248.812L218.332 249.538L218.332 249.538L219.02 248.812ZM218.431 247.256L219.43 247.29L219.43 247.28L218.431 247.256ZM218.893 245.884L218.102 245.272L218.099 245.276L218.893 245.884ZM223.499 245.095L223.056 245.991L223.058 245.992L223.499 245.095ZM224.605 246.052L223.763 246.592L223.763 246.592L224.605 246.052ZM224.982 247.436L224.953 248.436L225.969 248.466L225.982 247.449L224.982 247.436ZM224.212 247.315C224.17 246.712 223.91 246.17 223.416 245.783L222.183 247.358C222.193 247.366 222.198 247.371 222.199 247.373C222.201 247.374 222.201 247.375 222.202 247.377C222.202 247.377 222.213 247.397 222.217 247.453L224.212 247.315ZM223.416 245.783C222.941 245.412 222.362 245.271 221.785 245.254L221.726 247.253C222.035 247.263 222.151 247.333 222.183 247.358L223.416 245.783ZM221.785 245.254C221.396 245.243 221.002 245.286 220.637 245.423L221.342 247.295C221.396 247.275 221.513 247.247 221.726 247.253L221.785 245.254ZM220.648 245.419C220.301 245.545 219.972 245.751 219.72 246.067L221.284 247.313C221.275 247.325 221.269 247.329 221.272 247.326C221.276 247.323 221.293 247.313 221.331 247.299L220.648 245.419ZM219.712 246.077C219.467 246.393 219.337 246.765 219.326 247.159L221.325 247.217C221.325 247.221 221.324 247.236 221.316 247.257C221.308 247.279 221.298 247.295 221.292 247.304L219.712 246.077ZM219.328 247.122C219.306 247.444 219.364 247.782 219.543 248.095L221.28 247.105C221.299 247.138 221.312 247.173 221.318 247.204C221.324 247.233 221.323 247.252 221.323 247.254L219.328 247.122ZM219.551 248.11C219.701 248.362 219.9 248.566 220.126 248.726L221.284 247.096C221.271 247.087 221.266 247.081 221.265 247.081C221.265 247.08 221.268 247.083 221.271 247.089L219.551 248.11ZM220.139 248.735C220.333 248.869 220.544 248.978 220.765 249.068L221.518 247.215C221.408 247.17 221.328 247.126 221.271 247.087L220.139 248.735ZM220.778 249.073C220.985 249.154 221.202 249.222 221.426 249.28L221.921 247.342C221.767 247.302 221.629 247.258 221.504 247.21L220.778 249.073ZM221.412 249.276L222.191 249.486L222.713 247.556L221.935 247.345L221.412 249.276ZM222.205 249.49C222.526 249.572 222.808 249.674 223.055 249.793L223.924 247.992C223.544 247.809 223.134 247.663 222.699 247.552L222.205 249.49ZM223.055 249.793C223.287 249.905 223.47 250.032 223.614 250.168L224.987 248.714C224.678 248.422 224.32 248.183 223.924 247.992L223.055 249.793ZM223.614 250.168C223.74 250.287 223.833 250.421 223.898 250.576L225.742 249.803C225.568 249.388 225.314 249.023 224.987 248.714L223.614 250.168ZM223.901 250.584C223.958 250.717 223.997 250.896 223.992 251.141L225.991 251.184C226.002 250.702 225.926 250.232 225.739 249.795L223.901 250.584ZM223.992 251.128C223.98 251.486 223.884 251.745 223.735 251.948L225.348 253.13C225.763 252.565 225.966 251.906 225.991 251.197L223.992 251.128ZM223.734 251.949C223.585 252.153 223.356 252.338 222.991 252.481L223.722 254.343C224.381 254.084 224.941 253.687 225.349 253.129L223.734 251.949ZM222.994 252.48C222.641 252.618 222.172 252.696 221.558 252.678L221.499 254.678C222.304 254.701 223.054 254.603 223.719 254.344L222.994 252.48ZM221.558 252.678C220.953 252.661 220.478 252.554 220.106 252.387L219.289 254.213C219.95 254.509 220.695 254.654 221.499 254.678L221.558 252.678ZM220.108 252.388C219.753 252.228 219.512 252.017 219.347 251.762L217.669 252.85C218.063 253.458 218.616 253.91 219.287 254.212L220.108 252.388ZM219.351 251.768C219.198 251.529 219.095 251.196 219.098 250.719L217.098 250.705C217.093 251.484 217.263 252.214 217.665 252.843L219.351 251.768ZM218.069 251.712L219.854 251.764L219.913 249.765L218.128 249.712L218.069 251.712ZM218.884 250.803C218.901 251.252 219.023 251.695 219.297 252.083L220.929 250.927C220.919 250.913 220.888 250.864 220.882 250.726L218.884 250.803ZM219.306 252.096C219.567 252.451 219.91 252.709 220.304 252.879L221.097 251.043C220.997 251 220.949 250.954 220.919 250.913L219.306 252.096ZM220.316 252.884C220.697 253.043 221.104 253.118 221.523 253.131L221.582 251.132C221.365 251.125 221.204 251.088 221.085 251.038L220.316 252.884ZM221.523 253.131C221.929 253.143 222.332 253.096 222.71 252.959L222.03 251.078C221.942 251.11 221.8 251.138 221.582 251.132L221.523 253.131ZM222.706 252.961C223.074 252.83 223.42 252.619 223.688 252.298L222.156 251.013C222.156 251.013 222.155 251.015 222.152 251.017C222.149 251.02 222.144 251.024 222.135 251.03C222.118 251.041 222.087 251.058 222.034 251.077L222.706 252.961ZM223.688 252.298C223.968 251.964 224.117 251.563 224.13 251.133L222.131 251.074C222.131 251.076 222.131 251.065 222.138 251.046C222.145 251.028 222.153 251.016 222.156 251.013L223.688 252.298ZM224.13 251.133C224.142 250.723 224.025 250.313 223.743 249.969L222.198 251.239C222.175 251.211 222.155 251.176 222.142 251.137C222.13 251.1 222.131 251.076 222.131 251.074L224.13 251.133ZM223.751 249.979C223.514 249.684 223.205 249.482 222.894 249.339L222.061 251.158C222.122 251.185 222.159 251.209 222.18 251.223C222.2 251.238 222.199 251.241 222.19 251.229L223.751 249.979ZM222.898 249.341C222.617 249.211 222.294 249.1 221.943 249.004L221.417 250.934C221.697 251.01 221.907 251.086 222.057 251.156L222.898 249.341ZM221.952 249.007L221.009 248.74L220.465 250.665L221.408 250.931L221.952 249.007ZM221.002 248.738C220.381 248.568 219.971 248.336 219.708 248.086L218.332 249.538C218.898 250.075 219.633 250.436 220.472 250.667L221.002 248.738ZM219.708 248.086C219.529 247.917 219.416 247.689 219.43 247.29L217.431 247.222C217.401 248.112 217.681 248.921 218.332 249.538L219.708 248.086ZM219.43 247.28C219.438 246.944 219.531 246.695 219.687 246.492L218.099 245.276C217.664 245.845 217.448 246.511 217.431 247.232L219.43 247.28ZM219.684 246.495C219.863 246.265 220.115 246.069 220.478 245.92L219.722 244.069C219.073 244.334 218.52 244.731 218.102 245.272L219.684 246.495ZM220.478 245.92C220.836 245.774 221.265 245.697 221.784 245.712L221.843 243.713C221.09 243.691 220.377 243.801 219.722 244.069L220.478 245.92ZM221.784 245.712C222.319 245.728 222.733 245.831 223.056 245.991L223.943 244.198C223.313 243.886 222.604 243.735 221.843 243.713L221.784 245.712ZM223.058 245.992C223.393 246.157 223.614 246.36 223.763 246.592L225.447 245.513C225.079 244.939 224.564 244.504 223.941 244.197L223.058 245.992ZM223.763 246.592C223.906 246.815 223.987 247.081 223.982 247.423L225.982 247.449C225.991 246.751 225.82 246.094 225.447 245.513L223.763 246.592ZM225.011 246.437L223.244 246.384L223.185 248.384L224.953 248.436L225.011 246.437ZM226.125 253.69L225.125 253.66L225.096 254.66L226.095 254.689L226.125 253.69ZM226.317 247.147L226.347 246.148L225.347 246.118L225.318 247.118L226.317 247.147ZM228.132 247.201L229.132 247.23L229.161 246.231L228.161 246.201L228.132 247.201ZM227.939 253.743L227.91 254.743L228.909 254.772L228.939 253.773L227.939 253.743ZM226.567 246.042L225.856 246.744L225.861 246.75L225.867 246.755L226.567 246.042ZM226.606 244.747L227.269 245.495L227.269 245.495L226.606 244.747ZM227.99 244.788L227.278 245.49L227.284 245.496L227.289 245.501L227.99 244.788ZM227.952 246.083L228.615 246.831L228.615 246.831L227.952 246.083ZM227.124 253.719L227.317 247.177L225.318 247.118L225.125 253.66L227.124 253.719ZM226.288 248.147L228.103 248.2L228.161 246.201L226.347 246.148L226.288 248.147ZM227.132 247.171L226.94 253.714L228.939 253.773L229.132 247.23L227.132 247.171ZM227.969 252.744L226.154 252.69L226.095 254.689L227.91 254.743L227.969 252.744ZM227.283 245.331C227.271 245.331 227.265 245.33 227.264 245.329C227.263 245.329 227.264 245.329 227.268 245.331C227.271 245.332 227.274 245.334 227.275 245.335C227.276 245.335 227.274 245.334 227.268 245.329L225.867 246.755C226.239 247.121 226.71 247.315 227.224 247.33L227.283 245.331ZM227.279 245.339C227.269 245.33 227.279 245.337 227.29 245.362C227.294 245.374 227.298 245.385 227.299 245.396C227.301 245.406 227.301 245.411 227.301 245.411L225.302 245.352C225.286 245.89 225.488 246.371 225.856 246.744L227.279 245.339ZM227.301 245.411C227.301 245.412 227.3 245.42 227.298 245.431C227.295 245.443 227.291 245.455 227.285 245.468C227.272 245.495 227.26 245.504 227.269 245.495L225.942 243.999C225.551 244.346 225.318 244.813 225.302 245.352L227.301 245.411ZM227.269 245.495C227.275 245.49 227.278 245.488 227.276 245.489C227.275 245.49 227.272 245.492 227.268 245.493C227.264 245.495 227.261 245.495 227.262 245.495C227.262 245.495 227.267 245.494 227.279 245.494L227.337 243.495C226.818 243.48 226.335 243.651 225.942 243.999L227.269 245.495ZM227.279 245.494C227.284 245.495 227.288 245.495 227.291 245.495C227.293 245.495 227.294 245.496 227.295 245.496C227.295 245.496 227.294 245.496 227.292 245.495C227.29 245.495 227.288 245.494 227.286 245.493C227.281 245.491 227.277 245.488 227.275 245.487C227.272 245.485 227.274 245.486 227.278 245.49L228.702 244.085C228.331 243.71 227.857 243.511 227.337 243.495L227.279 245.494ZM227.289 245.501C227.299 245.511 227.287 245.502 227.275 245.473C227.269 245.459 227.265 245.445 227.263 245.433C227.261 245.42 227.261 245.412 227.261 245.41L229.26 245.469C229.276 244.924 229.065 244.443 228.691 244.074L227.289 245.501ZM227.261 245.41C227.261 245.409 227.261 245.403 227.264 245.392C227.267 245.381 227.271 245.369 227.276 245.357C227.289 245.331 227.299 245.325 227.288 245.335L228.615 246.831C229.009 246.482 229.244 246.012 229.26 245.469L227.261 245.41ZM227.289 245.334C227.284 245.338 227.283 245.339 227.285 245.337C227.288 245.336 227.291 245.334 227.296 245.332C227.3 245.331 227.303 245.33 227.302 245.33C227.301 245.331 227.295 245.331 227.283 245.331L227.224 247.33C227.739 247.345 228.222 247.179 228.615 246.831L227.289 245.334ZM229.393 253.786L228.393 253.757L228.364 254.756L229.363 254.786L229.393 253.786ZM229.586 247.243L229.615 246.244L228.615 246.214L228.586 247.214L229.586 247.243ZM231.315 247.294L232.315 247.324L232.344 246.324L231.344 246.295L231.315 247.294ZM231.281 248.449L230.281 248.419L230.252 249.419L231.251 249.448L231.281 248.449ZM231.358 248.451L231.328 249.451L232.034 249.471L232.29 248.814L231.358 248.451ZM232.066 247.564L231.519 246.727L231.519 246.727L232.066 247.564ZM234.353 247.635L233.749 248.433L233.754 248.436L234.353 247.635ZM234.957 248.557L233.986 248.795L234.166 249.534L234.927 249.557L234.957 248.557ZM235.025 248.559L234.996 249.559L235.701 249.579L235.957 248.922L235.025 248.559ZM235.776 247.682L236.291 248.539L236.293 248.538L235.776 247.682ZM238.503 248.005L237.768 248.683L237.773 248.688L238.503 248.005ZM238.9 254.066L238.871 255.066L239.87 255.095L239.9 254.096L238.9 254.066ZM237.09 254.013L236.09 253.983L236.061 254.983L237.06 255.012L237.09 254.013ZM236.943 249.144L236.237 249.852L236.237 249.852L236.943 249.144ZM235.447 249.143L236.174 249.829L236.179 249.825L235.447 249.143ZM235.028 253.952L234.999 254.952L235.998 254.981L236.028 253.982L235.028 253.952ZM233.269 253.9L232.269 253.871L232.24 254.87L233.24 254.9L233.269 253.9ZM233.135 249.045L232.392 249.714L232.397 249.72L233.135 249.045ZM231.874 248.875L232.379 249.739L232.383 249.736L231.874 248.875ZM231.482 249.286L232.354 249.776L232.357 249.77L231.482 249.286ZM231.207 253.84L231.178 254.839L232.177 254.869L232.207 253.869L231.207 253.84ZM230.392 253.816L230.585 247.273L228.586 247.214L228.393 253.757L230.392 253.816ZM229.556 248.243L231.285 248.294L231.344 246.295L229.615 246.244L229.556 248.243ZM230.315 247.265L230.281 248.419L232.28 248.478L232.315 247.324L230.315 247.265ZM231.251 249.448L231.328 249.451L231.387 247.451L231.31 247.449L231.251 249.448ZM232.29 248.814C232.365 248.618 232.472 248.493 232.613 248.401L231.519 246.727C231.011 247.059 230.645 247.525 230.426 248.088L232.29 248.814ZM232.613 248.401C232.743 248.316 232.919 248.257 233.188 248.265L233.247 246.266C232.63 246.247 232.038 246.387 231.519 246.727L232.613 248.401ZM233.188 248.265C233.463 248.273 233.632 248.344 233.75 248.433L234.957 246.838C234.457 246.46 233.869 246.284 233.247 246.266L233.188 248.265ZM233.754 248.436C233.872 248.525 233.945 248.63 233.986 248.795L235.928 248.319C235.781 247.717 235.451 247.208 234.952 246.835L233.754 248.436ZM234.927 249.557L234.996 249.559L235.055 247.559L234.986 247.557L234.927 249.557ZM235.957 248.922C236.017 248.767 236.116 248.644 236.291 248.539L235.26 246.825C234.724 247.147 234.322 247.61 234.093 248.196L235.957 248.922ZM236.293 248.538C236.464 248.434 236.688 248.368 237.004 248.377L237.063 246.378C236.42 246.359 235.805 246.496 235.259 246.826L236.293 248.538ZM237.004 248.377C237.382 248.388 237.604 248.505 237.768 248.683L239.238 247.327C238.664 246.704 237.907 246.403 237.063 246.378L237.004 248.377ZM237.773 248.688C237.915 248.84 238.046 249.107 238.03 249.637L240.029 249.696C240.055 248.805 239.836 247.965 239.233 247.322L237.773 248.688ZM238.03 249.637L237.9 254.037L239.9 254.096L240.029 249.696L238.03 249.637ZM238.929 253.067L237.119 253.013L237.06 255.012L238.871 255.066L238.929 253.067ZM238.089 254.042L238.208 250L236.209 249.941L236.09 253.983L238.089 254.042ZM238.208 250C238.224 249.466 238.097 248.883 237.65 248.437L236.237 249.852C236.224 249.839 236.214 249.826 236.207 249.814C236.2 249.802 236.198 249.795 236.198 249.797C236.2 249.803 236.212 249.845 236.209 249.941L238.208 250ZM237.65 248.437C237.264 248.052 236.775 247.866 236.257 247.851L236.198 249.85C236.218 249.85 236.231 249.852 236.237 249.854C236.244 249.855 236.245 249.856 236.244 249.855C236.242 249.855 236.239 249.853 236.237 249.851C236.234 249.85 236.234 249.849 236.237 249.852L237.65 248.437ZM236.257 247.851C235.696 247.834 235.138 248.008 234.715 248.461L236.179 249.825C236.175 249.828 236.169 249.834 236.16 249.84C236.15 249.846 236.142 249.85 236.136 249.852C236.124 249.857 236.139 249.848 236.198 249.85L236.257 247.851ZM234.72 248.456C234.325 248.874 234.162 249.4 234.146 249.927L236.145 249.986C236.148 249.905 236.16 249.862 236.167 249.845C236.17 249.836 236.172 249.832 236.173 249.831C236.173 249.83 236.173 249.83 236.174 249.829L234.72 248.456ZM234.146 249.927L234.029 253.923L236.028 253.982L236.145 249.986L234.146 249.927ZM235.058 252.953L233.298 252.901L233.24 254.9L234.999 254.952L235.058 252.953ZM234.269 253.93L234.389 249.849L232.39 249.79L232.269 253.871L234.269 253.93ZM234.389 249.849C234.404 249.326 234.263 248.796 233.873 248.37L232.397 249.72C232.394 249.716 232.39 249.711 232.387 249.706C232.383 249.7 232.382 249.696 232.383 249.697C232.383 249.698 232.392 249.725 232.39 249.79L234.389 249.849ZM233.878 248.376C233.494 247.949 232.984 247.754 232.453 247.739L232.394 249.738C232.415 249.738 232.428 249.74 232.433 249.741C232.437 249.742 232.435 249.742 232.429 249.74C232.423 249.737 232.415 249.733 232.407 249.727C232.399 249.721 232.394 249.716 232.392 249.714L233.878 248.376ZM232.453 247.739C232.073 247.727 231.701 247.816 231.365 248.015L232.383 249.736C232.383 249.736 232.383 249.736 232.381 249.737C232.38 249.738 232.378 249.738 232.377 249.738C232.376 249.739 232.376 249.738 232.379 249.738C232.381 249.738 232.386 249.738 232.394 249.738L232.453 247.739ZM231.369 248.012C231.038 248.206 230.785 248.48 230.607 248.802L232.357 249.77C232.369 249.75 232.376 249.741 232.378 249.739C232.379 249.738 232.379 249.738 232.379 249.738C232.378 249.739 232.378 249.739 232.379 249.739L231.369 248.012ZM230.61 248.796C230.418 249.138 230.334 249.511 230.324 249.883L232.323 249.942C232.326 249.831 232.348 249.786 232.354 249.776L230.61 248.796ZM230.324 249.883L230.208 253.81L232.207 253.869L232.323 249.942L230.324 249.883ZM231.237 252.84L229.422 252.786L229.363 254.786L231.178 254.839L231.237 252.84ZM241.582 253.851L241.047 254.696L241.053 254.7L241.582 253.851ZM240.505 252.634L239.602 253.065L239.603 253.067L240.505 252.634ZM240.609 249.094L241.483 249.58L241.485 249.578L240.609 249.094ZM241.756 247.943L242.235 248.82L242.237 248.82L241.756 247.943ZM245.185 248.044L244.65 248.889L244.656 248.893L245.185 248.044ZM246.266 249.261L245.363 249.692L245.364 249.694L246.266 249.261ZM246.161 252.801L247.036 253.286L247.037 253.284L246.161 252.801ZM245.01 253.952L245.49 254.829L245.492 254.829L245.01 253.952ZM244.097 252.685L244.72 253.467L244.726 253.462L244.097 252.685ZM244.574 251.991L243.641 251.631L243.638 251.639L244.574 251.991ZM244.634 249.955L243.679 250.251L243.681 250.259L244.634 249.955ZM242.678 249.19L242.06 248.404L242.054 248.408L242.678 249.19ZM242.193 249.883L241.26 249.523L241.257 249.531L242.193 249.883ZM242.133 251.919L241.178 252.215L241.18 252.223L242.133 251.919ZM242.576 252.64L241.908 253.383L241.913 253.388L241.919 253.393L242.576 252.64ZM243.315 253.324C242.797 253.309 242.409 253.188 242.11 253.002L241.053 254.7C241.703 255.105 242.451 255.299 243.256 255.323L243.315 253.324ZM242.116 253.006C241.806 252.81 241.573 252.549 241.406 252.201L239.603 253.067C239.929 253.746 240.414 254.296 241.047 254.696L242.116 253.006ZM241.407 252.203C241.24 251.854 241.149 251.423 241.164 250.884L239.165 250.825C239.142 251.627 239.277 252.383 239.602 253.065L241.407 252.203ZM241.164 250.884C241.181 250.338 241.298 249.914 241.483 249.58L239.735 248.609C239.368 249.271 239.189 250.02 239.165 250.825L241.164 250.884ZM241.485 249.578C241.672 249.239 241.919 248.994 242.235 248.82L241.276 247.066C240.616 247.427 240.099 247.949 239.733 248.611L241.485 249.578ZM242.237 248.82C242.546 248.65 242.939 248.552 243.455 248.567L243.514 246.568C242.707 246.544 241.948 246.697 241.274 247.067L242.237 248.82ZM243.455 248.567C243.971 248.583 244.356 248.704 244.65 248.889L245.719 247.199C245.07 246.789 244.321 246.592 243.514 246.568L243.455 248.567ZM244.656 248.893C244.965 249.085 245.197 249.344 245.363 249.692L247.168 248.83C246.842 248.146 246.353 247.594 245.713 247.195L244.656 248.893ZM245.364 249.694C245.529 250.038 245.622 250.469 245.606 251.015L247.605 251.074C247.629 250.268 247.494 249.51 247.167 248.828L245.364 249.694ZM245.606 251.015C245.59 251.554 245.473 251.978 245.286 252.318L247.037 253.284C247.402 252.622 247.581 251.876 247.605 251.074L245.606 251.015ZM245.287 252.316C245.101 252.651 244.852 252.898 244.529 253.076L245.492 254.829C246.151 254.467 246.67 253.946 247.036 253.286L245.287 252.316ZM244.531 253.075C244.226 253.242 243.833 253.339 243.315 253.324L243.256 255.323C244.062 255.347 244.819 255.197 245.49 254.829L244.531 253.075ZM243.306 253.918C243.808 253.932 244.302 253.799 244.72 253.467L243.474 251.902C243.47 251.906 243.467 251.908 243.459 251.91C243.449 251.913 243.421 251.92 243.365 251.918L243.306 253.918ZM244.726 253.462C245.095 253.164 245.348 252.774 245.51 252.343L243.638 251.639C243.578 251.799 243.513 251.871 243.468 251.907L244.726 253.462ZM245.507 252.351C245.669 251.931 245.747 251.478 245.761 251.007L243.762 250.948C243.753 251.238 243.707 251.461 243.641 251.631L245.507 252.351ZM245.761 251.007C245.775 250.536 245.723 250.079 245.586 249.65L243.681 250.259C243.737 250.433 243.77 250.658 243.762 250.948L245.761 251.007ZM245.589 249.659C245.452 249.219 245.223 248.815 244.872 248.495L243.525 249.973C243.567 250.012 243.628 250.088 243.679 250.251L245.589 249.659ZM244.872 248.495C244.476 248.134 243.988 247.968 243.482 247.953L243.423 249.952C243.477 249.953 243.503 249.962 243.511 249.965C243.517 249.967 243.52 249.969 243.525 249.973L244.872 248.495ZM243.482 247.953C242.975 247.938 242.479 248.073 242.06 248.404L243.296 249.975C243.302 249.971 243.322 249.949 243.423 249.952L243.482 247.953ZM242.054 248.408C241.683 248.704 241.426 249.092 241.26 249.523L243.126 250.243C243.188 250.083 243.254 250.009 243.302 249.971L242.054 248.408ZM241.257 249.531C241.1 249.948 241.024 250.398 241.01 250.867L243.009 250.926C243.018 250.634 243.064 250.408 243.129 250.235L241.257 249.531ZM241.01 250.867C240.996 251.336 241.046 251.79 241.178 252.215L243.088 251.623C243.033 251.446 243.001 251.218 243.009 250.926L241.01 250.867ZM241.18 252.223C241.321 252.663 241.555 253.066 241.908 253.383L243.245 251.896C243.2 251.855 243.138 251.777 243.086 251.615L241.18 252.223ZM241.919 253.393C242.319 253.742 242.803 253.903 243.306 253.918L243.365 251.918C243.26 251.915 243.239 251.89 243.234 251.886L241.919 253.393ZM249.616 250.596L248.616 250.557L248.616 250.567L249.616 250.596ZM249.504 254.379L249.475 255.378L250.474 255.408L250.504 254.408L249.504 254.379ZM247.69 254.325L246.69 254.296L246.661 255.295L247.66 255.325L247.69 254.325ZM247.882 247.783L247.912 246.783L246.912 246.754L246.883 247.753L247.882 247.783ZM249.612 247.834L250.611 247.863L250.641 246.863L249.641 246.834L249.612 247.834ZM249.578 248.988L248.578 248.958L248.549 249.958L249.548 249.987L249.578 248.988ZM249.654 248.99L249.625 249.99L250.314 250.01L250.578 249.373L249.654 248.99ZM250.409 248.109L250.929 248.963L250.934 248.96L250.409 248.109ZM253.601 249.017L252.697 249.443L252.698 249.446L253.601 249.017ZM253.721 254.503L253.692 255.502L254.691 255.532L254.721 254.532L253.721 254.503ZM251.906 254.449L250.907 254.42L250.877 255.42L251.877 255.449L251.906 254.449ZM252.02 250.607L251.02 250.571L251.02 250.578L252.02 250.607ZM251.741 249.661L250.982 250.313L250.986 250.318L251.741 249.661ZM250.242 249.434L249.779 248.547L249.774 248.551L250.242 249.434ZM249.794 249.881L248.922 249.393L248.919 249.398L249.794 249.881ZM248.616 250.567L248.505 254.349L250.504 254.408L250.615 250.626L248.616 250.567ZM249.534 253.379L247.719 253.326L247.66 255.325L249.475 255.378L249.534 253.379ZM248.689 254.355L248.882 247.812L246.883 247.753L246.69 254.296L248.689 254.355ZM247.853 248.782L249.582 248.833L249.641 246.834L247.912 246.783L247.853 248.782ZM248.612 247.804L248.578 248.958L250.577 249.017L250.611 247.863L248.612 247.804ZM249.548 249.987L249.625 249.99L249.684 247.991L249.607 247.988L249.548 249.987ZM250.578 249.373C250.653 249.192 250.764 249.064 250.929 248.963L249.889 247.254C249.361 247.576 248.968 248.035 248.731 248.607L250.578 249.373ZM250.934 248.96C251.086 248.866 251.301 248.798 251.629 248.808L251.688 246.809C251.045 246.79 250.428 246.922 249.884 247.257L250.934 248.96ZM251.629 248.808C251.934 248.817 252.148 248.889 252.306 248.988L253.371 247.295C252.865 246.977 252.292 246.827 251.688 246.809L251.629 248.808ZM252.306 248.988C252.467 249.09 252.597 249.231 252.697 249.443L254.506 248.591C254.253 248.053 253.874 247.611 253.371 247.295L252.306 248.988ZM252.698 249.446C252.793 249.645 252.856 249.921 252.844 250.308L254.843 250.367C254.862 249.737 254.763 249.133 254.505 248.588L252.698 249.446ZM252.844 250.308L252.721 254.473L254.721 254.532L254.843 250.367L252.844 250.308ZM253.75 253.503L251.936 253.45L251.877 255.449L253.692 255.502L253.75 253.503ZM252.906 254.479L253.019 250.637L251.02 250.578L250.907 254.42L252.906 254.479ZM253.019 250.644C253.04 250.071 252.909 249.48 252.495 249.005L250.986 250.318C250.987 250.319 250.988 250.32 250.99 250.324C250.992 250.328 250.997 250.337 251.002 250.354C251.012 250.388 251.025 250.456 251.02 250.571L253.019 250.644ZM252.499 249.009C252.081 248.524 251.513 248.313 250.924 248.296L250.865 250.295C250.943 250.297 250.976 250.31 250.982 250.313C250.985 250.314 250.984 250.314 250.982 250.312C250.98 250.311 250.98 250.311 250.982 250.313L252.499 249.009ZM250.924 248.296C250.532 248.284 250.141 248.358 249.779 248.547L250.705 250.32C250.724 250.31 250.768 250.292 250.865 250.295L250.924 248.296ZM249.774 248.551C249.404 248.747 249.119 249.039 248.922 249.393L250.667 250.369C250.691 250.326 250.706 250.32 250.711 250.317L249.774 248.551ZM248.919 249.398C248.719 249.76 248.632 250.159 248.616 250.557L250.615 250.636C250.621 250.471 250.654 250.393 250.67 250.364L248.919 249.398Z" fill="white" mask="url(#path-7-outside-1_1_29)"/>
<g filter="url(#filter6_i_1_29)">
<path d="M415.904 306.947C421.298 308.72 425.229 313.387 426.059 319.003L435.877 385.421C436.637 390.566 434.679 395.738 430.701 399.088L340.601 474.97C336.646 478.301 331.254 479.36 326.333 477.773L262.208 457.091C256.747 455.33 252.769 450.607 251.962 444.926L242.483 378.221C241.756 373.102 243.717 367.969 247.672 364.638L337.772 288.756C341.749 285.406 347.178 284.355 352.119 285.979L415.904 306.947Z" fill="white"/>
<path d="M415.904 306.947C421.298 308.72 425.229 313.387 426.059 319.003L435.877 385.421C436.637 390.566 434.679 395.738 430.701 399.088L340.601 474.97C336.646 478.301 331.254 479.36 326.333 477.773L262.208 457.091C256.747 455.33 252.769 450.607 251.962 444.926L242.483 378.221C241.756 373.102 243.717 367.969 247.672 364.638L337.772 288.756C341.749 285.406 347.178 284.355 352.119 285.979L415.904 306.947Z" fill="#325DCC"/>
</g>
<g filter="url(#filter7_i_1_29)">
<path d="M215.659 439.356C214.959 444.991 211.138 449.747 205.786 451.644L142.507 474.082C137.605 475.819 132.153 474.894 128.099 471.637L36.2715 397.854C32.2409 394.616 30.1623 389.53 30.771 384.395L38.7034 317.486C39.379 311.787 43.2465 306.974 48.6657 305.086L112.292 282.927C117.175 281.227 122.589 282.161 126.62 285.4L218.448 359.182C222.501 362.44 224.579 367.565 223.938 372.725L215.659 439.356Z" fill="white"/>
<path d="M215.659 439.356C214.959 444.991 211.138 449.747 205.786 451.644L142.507 474.082C137.605 475.819 132.153 474.894 128.099 471.637L36.2715 397.854C32.2409 394.616 30.1623 389.53 30.771 384.395L38.7034 317.486C39.379 311.787 43.2465 306.974 48.6657 305.086L112.292 282.927C117.175 281.227 122.589 282.161 126.62 285.4L218.448 359.182C222.501 362.44 224.579 367.565 223.938 372.725L215.659 439.356Z" fill="#F31A1A"/>
</g>
<g filter="url(#filter8_i_1_29)">
<path d="M427.973 187.722C427.07 193.327 423.08 197.943 417.664 199.646L353.616 219.788C348.655 221.348 343.24 220.227 339.306 216.826L250.197 139.782C246.286 136.4 244.392 131.242 245.186 126.133L255.524 59.5531C256.405 53.8826 260.443 49.2114 265.927 47.5206L330.31 27.6691C335.251 26.1456 340.629 27.2745 344.54 30.6563L433.649 107.7C437.583 111.102 439.474 116.298 438.648 121.432L427.973 187.722Z" fill="white"/>
<path d="M427.973 187.722C427.07 193.327 423.08 197.943 417.664 199.646L353.616 219.788C348.655 221.348 343.24 220.227 339.306 216.826L250.197 139.782C246.286 136.4 244.392 131.242 245.186 126.133L255.524 59.5531C256.405 53.8826 260.443 49.2114 265.927 47.5206L330.31 27.6691C335.251 26.1456 340.629 27.2745 344.54 30.6563L433.649 107.7C437.583 111.102 439.474 116.298 438.648 121.432L427.973 187.722Z" fill="#E2E62E"/>
</g>
<g filter="url(#filter9_i_1_29)">
<path d="M204.8 50.392C210.175 52.2213 214.057 56.9287 214.828 62.5538L223.951 129.071C224.658 134.223 222.645 139.374 218.633 142.682L127.744 217.618C123.754 220.907 118.352 221.91 113.448 220.272L49.5428 198.921C44.1 197.102 40.1717 192.338 39.4239 186.649L30.6437 119.849C29.9698 114.722 31.9839 109.61 35.9735 106.321L126.862 31.385C130.875 28.0767 136.315 27.0828 141.238 28.7584L204.8 50.392Z" fill="white"/>
<path d="M204.8 50.392C210.175 52.2213 214.057 56.9287 214.828 62.5538L223.951 129.071C224.658 134.223 222.645 139.374 218.633 142.682L127.744 217.618C123.754 220.907 118.352 221.91 113.448 220.272L49.5428 198.921C44.1 197.102 40.1717 192.338 39.4239 186.649L30.6437 119.849C29.9698 114.722 31.9839 109.61 35.9735 106.321L126.862 31.385C130.875 28.0767 136.315 27.0828 141.238 28.7584L204.8 50.392Z" fill="#2FD954"/>
</g>
<defs>
<filter id="filter0_i_1_29" x="142.059" y="160.949" width="185.997" height="185.006" filterUnits="userSpaceOnUse" color-interpolation-filters="sRGB">
<feFlood flood-opacity="0" result="BackgroundImageFix"/>
<feBlend mode="normal" in="SourceGraphic" in2="BackgroundImageFix" result="shape"/>
<feColorMatrix in="SourceAlpha" type="matrix" values="0 0 0 0 0 0 0 0 0 0 0 0 0 0 0 0 0 0 127 0" result="hardAlpha"/>
<feOffset dy="4"/>
<feGaussianBlur stdDeviation="2"/>
<feComposite in2="hardAlpha" operator="arithmetic" k2="-1" k3="1"/>
<feColorMatrix type="matrix" values="0 0 0 0 0 0 0 0 0 0 0 0 0 0 0 0 0 0 0.25 0"/>
<feBlend mode="normal" in2="shape" result="effect1_innerShadow_1_29"/>
</filter>
<filter id="filter1_i_1_29" x="224.297" y="244.038" width="91.945" height="93.0119" filterUnits="userSpaceOnUse" color-interpolation-filters="sRGB">
<feFlood flood-opacity="0" result="BackgroundImageFix"/>
<feBlend mode="normal" in="SourceGraphic" in2="BackgroundImageFix" result="shape"/>
<feColorMatrix in="SourceAlpha" type="matrix" values="0 0 0 0 0 0 0 0 0 0 0 0 0 0 0 0 0 0 127 0" result="hardAlpha"/>
<feOffset dy="4"/>
<feGaussianBlur stdDeviation="2"/>
<feComposite in2="hardAlpha" operator="arithmetic" k2="-1" k3="1"/>
<feColorMatrix type="matrix" values="0 0 0 0 0 0 0 0 0 0 0 0 0 0 0 0 0 0 0.25 0"/>
<feBlend mode="normal" in2="shape" result="effect1_innerShadow_1_29"/>
</filter>
<filter id="filter2_i_1_29" x="226" y="170" width="90.7787" height="94.8964" filterUnits="userSpaceOnUse" color-interpolation-filters="sRGB">
<feFlood flood-opacity="0" result="BackgroundImageFix"/>
<feBlend mode="normal" in="SourceGraphic" in2="BackgroundImageFix" result="shape"/>
<feColorMatrix in="SourceAlpha" type="matrix" values="0 0 0 0 0 0 0 0 0 0 0 0 0 0 0 0 0 0 127 0" result="hardAlpha"/>
<feOffset dy="4"/>
<feGaussianBlur stdDeviation="2"/>
<feComposite in2="hardAlpha" operator="arithmetic" k2="-1" k3="1"/>
<feColorMatrix type="matrix" values="0 0 0 0 0 0 0 0 0 0 0 0 0 0 0 0 0 0 0.25 0"/>
<feBlend mode="normal" in2="shape" result="effect1_innerShadow_1_29"/>
</filter>
<filter id="filter3_i_1_29" x="151.164" y="169.206" width="90.2919" height="95.2996" filterUnits="userSpaceOnUse" color-interpolation-filters="sRGB">
<feFlood flood-opacity="0" result="BackgroundImageFix"/>
<feBlend mode="normal" in="SourceGraphic" in2="BackgroundImageFix" result="shape"/>
<feColorMatrix in="SourceAlpha" type="matrix" values="0 0 0 0 0 0 0 0 0 0 0 0 0 0 0 0 0 0 127 0" result="hardAlpha"/>
<feOffset dy="4"/>
<feGaussianBlur stdDeviation="2"/>
<feComposite in2="hardAlpha" operator="arithmetic" k2="-1" k3="1"/>
<feColorMatrix type="matrix" values="0 0 0 0 0 0 0 0 0 0 0 0 0 0 0 0 0 0 0.25 0"/>
<feBlend mode="normal" in2="shape" result="effect1_innerShadow_1_29"/>
</filter>
<filter id="filter4_i_1_29" x="151" y="243" width="91.2846" height="94.3128" filterUnits="userSpaceOnUse" color-interpolation-filters="sRGB">
<feFlood flood-opacity="0" result="BackgroundImageFix"/>
<feBlend mode="normal" in="SourceGraphic" in2="BackgroundImageFix" result="shape"/>
<feColorMatrix in="SourceAlpha" type="matrix" values="0 0 0 0 0 0 0 0 0 0 0 0 0 0 0 0 0 0 127 0" result="hardAlpha"/>
<feOffset dy="4"/>
<feGaussianBlur stdDeviation="2"/>
<feComposite in2="hardAlpha" operator="arithmetic" k2="-1" k3="1"/>
<feColorMatrix type="matrix" values="0 0 0 0 0 0 0 0 0 0 0 0 0 0 0 0 0 0 0.25 0"/>
<feBlend mode="normal" in2="shape" result="effect1_innerShadow_1_29"/>
</filter>
<filter id="filter5_i_1_29" x="218.014" y="244.229" width="35.9788" height="14.4017" filterUnits="userSpaceOnUse" color-interpolation-filters="sRGB">
<feFlood flood-opacity="0" result="BackgroundImageFix"/>
<feBlend mode="normal" in="SourceGraphic" in2="BackgroundImageFix" result="shape"/>
<feColorMatrix in="SourceAlpha" type="matrix" values="0 0 0 0 0 0 0 0 0 0 0 0 0 0 0 0 0 0 127 0" result="hardAlpha"/>
<feOffset dy="4"/>
<feGaussianBlur stdDeviation="2"/>
<feComposite in2="hardAlpha" operator="arithmetic" k2="-1" k3="1"/>
<feColorMatrix type="matrix" values="0 0 0 0 0 0 0 0 0 0 0 0 0 0 0 0 0 0 0.25 0"/>
<feBlend mode="normal" in2="shape" result="effect1_innerShadow_1_29"/>
</filter>
<filter id="filter6_i_1_29" x="212" y="259" width="254.115" height="249.943" filterUnits="userSpaceOnUse" color-interpolation-filters="sRGB">
<feFlood flood-opacity="0" result="BackgroundImageFix"/>
<feBlend mode="normal" in="SourceGraphic" in2="BackgroundImageFix" result="shape"/>
<feColorMatrix in="SourceAlpha" type="matrix" values="0 0 0 0 0 0 0 0 0 0 0 0 0 0 0 0 0 0 127 0" result="hardAlpha"/>
<feOffset dy="4"/>
<feGaussianBlur stdDeviation="2"/>
<feComposite in2="hardAlpha" operator="arithmetic" k2="-1" k3="1"/>
<feColorMatrix type="matrix" values="0 0 0 0 0 0 0 0 0 0 0 0 0 0 0 0 0 0 0.25 0"/>
<feBlend mode="normal" in2="shape" result="effect1_innerShadow_1_29"/>
</filter>
<filter id="filter7_i_1_29" x="4.57764e-05" y="256" width="254.457" height="248.826" filterUnits="userSpaceOnUse" color-interpolation-filters="sRGB">
<feFlood flood-opacity="0" result="BackgroundImageFix"/>
<feBlend mode="normal" in="SourceGraphic" in2="BackgroundImageFix" result="shape"/>
<feColorMatrix in="SourceAlpha" type="matrix" values="0 0 0 0 0 0 0 0 0 0 0 0 0 0 0 0 0 0 127 0" result="hardAlpha"/>
<feOffset dy="4"/>
<feGaussianBlur stdDeviation="2"/>
<feComposite in2="hardAlpha" operator="arithmetic" k2="-1" k3="1"/>
<feColorMatrix type="matrix" values="0 0 0 0 0 0 0 0 0 0 0 0 0 0 0 0 0 0 0.25 0"/>
<feBlend mode="normal" in2="shape" result="effect1_innerShadow_1_29"/>
</filter>
<filter id="filter8_i_1_29" x="215" y="0" width="253.592" height="251.262" filterUnits="userSpaceOnUse" color-interpolation-filters="sRGB">
<feFlood flood-opacity="0" result="BackgroundImageFix"/>
<feBlend mode="normal" in="SourceGraphic" in2="BackgroundImageFix" result="shape"/>
<feColorMatrix in="SourceAlpha" type="matrix" values="0 0 0 0 0 0 0 0 0 0 0 0 0 0 0 0 0 0 127 0" result="hardAlpha"/>
<feOffset dy="4"/>
<feGaussianBlur stdDeviation="2"/>
<feComposite in2="hardAlpha" operator="arithmetic" k2="-1" k3="1"/>
<feColorMatrix type="matrix" values="0 0 0 0 0 0 0 0 0 0 0 0 0 0 0 0 0 0 0.25 0"/>
<feBlend mode="normal" in2="shape" result="effect1_innerShadow_1_29"/>
</filter>
<filter id="filter9_i_1_29" x="0" y="2.00005" width="254.347" height="249.217" filterUnits="userSpaceOnUse" color-interpolation-filters="sRGB">
<feFlood flood-opacity="0" result="BackgroundImageFix"/>
<feBlend mode="normal" in="SourceGraphic" in2="BackgroundImageFix" result="shape"/>
<feColorMatrix in="SourceAlpha" type="matrix" values="0 0 0 0 0 0 0 0 0 0 0 0 0 0 0 0 0 0 127 0" result="hardAlpha"/>
<feOffset dy="4"/>
<feGaussianBlur stdDeviation="2"/>
<feComposite in2="hardAlpha" operator="arithmetic" k2="-1" k3="1"/>
<feColorMatrix type="matrix" values="0 0 0 0 0 0 0 0 0 0 0 0 0 0 0 0 0 0 0.25 0"/>
<feBlend mode="normal" in2="shape" result="effect1_innerShadow_1_29"/>
</filter>
</defs>
</svg>
